# xmcd
#
# Track frame offsets: 
#        150
#        26750
#        49972
#        75682
#        92502
#        115977
#        133655
#        162712
#        187540
#
# Disc length: 2907 seconds
#
# Revision: 0
# Processed by: cddbd v1.5.2PL0 Copyright (c) Steve Scherf et al.
# Submitted via: ExactAudioCopy v0.95a5
#
DISCID=700b5909
DTITLE=Christina and The Whipping Boys - Christina and The Whipping Boys
DYEAR=2007
DGENRE=Blues
TTITLE0=Automatic Woman
TTITLE1=Drop The Wall
TTITLE2=Innocence
TTITLE3=Concrete Rose
TTITLE4=Blue Christmas
TTITLE5=Down To The Blood
TTITLE6=Dog Day
TTITLE7=Wounded Angel
TTITLE8=Break The Chain
EXTD=
EXTT0=
EXTT1=
EXTT2=
EXTT3=
EXTT4=
EXTT5=
EXTT6=
EXTT7=
EXTT8=
PLAYORDER=
